<?xml version="1.0" encoding="UTF-8"?><svg id="a" xmlns="http://www.w3.org/2000/svg" viewBox="0 0 1000 1000"><rect id="b" width="1000" height="1000" style="fill:#11131c;"/><path d="M579.6221,665.001v-332.3979h81.6152v43.5601h11.8467c5.2656-11.6128,15.1387-22.6704,29.6182-33.1729,14.4805-10.4922,36.416-15.7485,65.8184-15.7485,25.4434,0,47.7188,5.9268,66.8057,17.7588,19.0869,11.8433,33.8965,28.147,44.4277,48.9214,10.5303,20.7754,15.7959,45.0156,15.7959,72.7129v198.3662h-82.9307v-191.665c0-25.0156-6.0371-43.7803-18.1006-56.293-12.0732-12.5029-29.2891-18.7646-51.667-18.7646-25.4531,0-45.1982,8.6074-59.2363,25.8008-14.0479,17.2041-21.0615,41.2148-21.0615,72.042v168.8799h-82.9316Z" style="fill:#507abd;"/><path d="M107.0845,665.002v-332.3979h81.6147v36.1885h11.8472c5.6973-11.1626,15.1382-20.8799,28.3018-29.1519,13.1636-8.2622,30.4922-12.3979,51.9961-12.3979,23.2524,0,41.8975,4.5864,55.9458,13.7383,14.0376,9.1621,24.7847,21.1099,32.251,35.853h11.8472c7.4556-14.293,17.9868-26.1357,31.5923-35.5181,13.5957-9.3823,32.9092-14.0732,57.9199-14.0732,20.1777,0,38.5039,4.356,54.959,13.0679,16.4541,8.7119,29.6182,21.8955,39.4902,39.5391,9.873,17.6543,14.8096,39.875,14.8096,66.6807v218.4717h-82.9307v-212.4404c0-18.3135-4.6074-32.0518-13.8223-41.2139-9.2148-9.1523-22.1621-13.7383-38.833-13.7383-18.8711,0-33.4639,6.1465-43.7686,18.4287-10.3154,12.2939-15.4678,29.8223-15.4678,52.6074v196.3564h-82.9307v-212.4404c0-18.3135-4.6074-32.0518-13.8218-41.2139-9.2144-9.1523-22.1621-13.7383-38.8325-13.7383-18.8716,0-33.4648,6.1465-43.7695,18.4287-10.3149,12.2939-15.4673,29.8223-15.4673,52.6074v196.3564h-82.9307Z" style="fill:#fff;"/></svg>